#!OML:ASF H:\Terrain\Patient Classification 1\Walking\liu\liu.ASF
:FULLY-SPECIFIED
:DEGREES
404
root 9.681280 16.879801 20.435900 6.538590 -1.607720 -7.685660
lowerback -9.013676 3.590994 3.692942
upperback 0.290685 4.208446 4.532396
thorax 5.289405 2.118160 3.167879
lowerneck -21.246830 -6.742736 -14.735600
upperneck 23.337271 -8.612362 14.380521
head 12.263460 -3.471116 6.408193
rclavicle 0.000000 -0.000000
rhumerus -29.712212 16.575241 -93.315201
rradius 43.441528
rwrist -19.672070
rhand -33.286221 -23.143890
rfingers 7.837522
rthumb -3.925614 -56.088673
lclavicle 0.000000 -0.000000
lhumerus -58.809853 -10.198750 106.007332
lradius 29.813190
lwrist 9.057379
lhand -11.397981 -28.891392
lfingers 7.837522
lthumb 17.198719 3.435630
rfemur 19.321501 6.492805 36.602722
rtibia -0.000000
rfoot -8.542567 7.643911
rtoes -11.299311
lfemur -47.415722 -3.834138 -9.557295
ltibia 23.163252
lfoot -17.682610 14.880690
ltoes -13.744611
405
root 9.698170 16.860100 20.610001 6.663240 -1.636340 -7.551300
lowerback -9.394022 3.614204 3.487451
upperback 0.274685 4.241765 4.434012
thorax 5.478715 2.130018 3.209173
lowerneck -21.014181 -6.675768 -14.782790
upperneck 23.147852 -8.556207 14.545080
head 12.149720 -3.439348 6.483664
rclavicle 0.000000 0.000000
rhumerus -30.036711 16.600321 -93.595589
rradius 43.113731
rwrist -19.676031
rhand -32.883839 -24.140049
rfingers 7.837522
rthumb -3.537028 -57.091103
lclavicle 0.000000 0.000000
lhumerus -58.784771 -10.128977 105.882042
lradius 29.501451
lwrist 8.592177
lhand -8.237999 -22.902771
lfingers 7.837522
lthumb 20.240440 9.161922
rfemur 19.902960 6.461686 36.350269
rtibia -0.000000
rfoot -8.475313 7.698988
rtoes -10.980223
lfemur -47.407143 -2.640814 -10.655470
ltibia 23.906080
lfoot -17.103130 13.618000
ltoes -13.289650
406
root 9.718390 16.822001 20.777300 6.696500 -1.575420 -7.675310
lowerback -9.423128 3.606504 3.592006
upperback 0.152758 4.224462 4.445144
thorax 5.373874 2.123770 3.156274
lowerneck -20.767561 -6.718811 -14.889270
upperneck 23.098351 -8.606576 14.525280
head 12.095600 -3.482160 6.485347
rclavicle 0.000000 0.000000
rhumerus -30.517302 16.688210 -93.941216
rradius 42.692101
rwrist -19.937500
rhand -33.038280 -23.761869
rfingers 7.837522
rthumb -3.686166 -56.710609
lclavicle 0.000000 0.000000
lhumerus -59.046352 -9.871236 105.774353
lradius 29.491112
lwrist 7.985890
lhand -9.196044 -25.424850
lfingers 7.837522
lthumb 19.318642 6.724531
rfemur 20.616421 6.332205 36.453999
rtibia -0.000000
rfoot -8.237329 7.636684
rtoes -13.311541
lfemur -47.398121 -1.622269 -11.329451
ltibia 24.704460
lfoot -16.467112 12.283260
ltoes -14.416600
407
root 9.745040 16.793800 20.941401 6.747970 -1.397710 -7.933830
lowerback -9.271417 3.632805 4.040663
upperback 0.020690 4.233603 4.379265
thorax 5.184685 2.138950 2.822369
lowerneck -21.009010 -6.839789 -14.842850
upperneck 23.330450 -8.783028 14.509990
head 12.253670 -3.551526 6.449168
rclavicle -0.000000 -0.000000
rhumerus -30.946741 16.205420 -94.234367
rradius 42.357483
rwrist -19.705400
rhand -33.153122 -22.698830
rfingers 7.837522
rthumb -3.797079 -55.645813
lclavicle -0.000000 -0.000000
lhumerus -59.252491 -9.875481 105.653465
lradius 29.487700
lwrist 7.435648
lhand -7.430489 -22.926311
lfingers 7.837522
lthumb 21.017040 9.063406
rfemur 21.209320 6.106826 36.681152
rtibia -0.000000
rfoot -7.804225 7.603420
rtoes -16.231491
lfemur -47.369083 -0.941037 -11.663520
ltibia 25.509439
lfoot -15.814371 11.134200
ltoes -14.831850
